<svg id="visual" viewBox="0 0 1920 1080" width="1920" height="1080" xmlns="http://www.w3.org/2000/svg" xmlns:xlink="http://www.w3.org/1999/xlink" version="1.1"><path d="M0 189L53.3 196.7C106.7 204.3 213.3 219.7 320 228.7C426.7 237.7 533.3 240.3 640 240.5C746.7 240.7 853.3 238.3 960 233.7C1066.7 229 1173.3 222 1280 218.3C1386.7 214.7 1493.3 214.3 1600 217.7C1706.7 221 1813.3 228 1866.7 231.5L1920 235L1920 0L1866.7 0C1813.3 0 1706.7 0 1600 0C1493.3 0 1386.7 0 1280 0C1173.3 0 1066.7 0 960 0C853.3 0 746.7 0 640 0C533.3 0 426.7 0 320 0C213.3 0 106.7 0 53.3 0L0 0Z" fill="#22152d"></path><path d="M0 158L53.3 164C106.7 170 213.3 182 320 190C426.7 198 533.3 202 640 199C746.7 196 853.3 186 960 183C1066.7 180 1173.3 184 1280 184C1386.7 184 1493.3 180 1600 176C1706.7 172 1813.3 168 1866.7 166L1920 164L1920 0L1866.7 0C1813.3 0 1706.7 0 1600 0C1493.3 0 1386.7 0 1280 0C1173.3 0 1066.7 0 960 0C853.3 0 746.7 0 640 0C533.3 0 426.7 0 320 0C213.3 0 106.7 0 53.3 0L0 0Z" fill="#28142e"></path><path d="M0 157L53.3 158.7C106.7 160.3 213.3 163.7 320 165.2C426.7 166.7 533.3 166.3 640 165C746.7 163.7 853.3 161.3 960 161.5C1066.7 161.7 1173.3 164.3 1280 163.5C1386.7 162.7 1493.3 158.3 1600 158.5C1706.7 158.7 1813.3 163.3 1866.7 165.7L1920 168L1920 0L1866.7 0C1813.3 0 1706.7 0 1600 0C1493.3 0 1386.7 0 1280 0C1173.3 0 1066.7 0 960 0C853.3 0 746.7 0 640 0C533.3 0 426.7 0 320 0C213.3 0 106.7 0 53.3 0L0 0Z" fill="#2e122e"></path><path d="M0 101L53.3 104.3C106.7 107.7 213.3 114.3 320 117.3C426.7 120.3 533.3 119.7 640 117C746.7 114.3 853.3 109.7 960 107.8C1066.7 106 1173.3 107 1280 109.2C1386.7 111.3 1493.3 114.7 1600 113.3C1706.7 112 1813.3 106 1866.7 103L1920 100L1920 0L1866.7 0C1813.3 0 1706.7 0 1600 0C1493.3 0 1386.7 0 1280 0C1173.3 0 1066.7 0 960 0C853.3 0 746.7 0 640 0C533.3 0 426.7 0 320 0C213.3 0 106.7 0 53.3 0L0 0Z" fill="#34102d"></path><path d="M0 88L53.3 85.8C106.7 83.7 213.3 79.3 320 75.8C426.7 72.3 533.3 69.7 640 68C746.7 66.3 853.3 65.7 960 69.2C1066.7 72.7 1173.3 80.3 1280 85C1386.7 89.7 1493.3 91.3 1600 90C1706.7 88.7 1813.3 84.3 1866.7 82.2L1920 80L1920 0L1866.7 0C1813.3 0 1706.7 0 1600 0C1493.3 0 1386.7 0 1280 0C1173.3 0 1066.7 0 960 0C853.3 0 746.7 0 640 0C533.3 0 426.7 0 320 0C213.3 0 106.7 0 53.3 0L0 0Z" fill="#3b0d2c"></path><path d="M0 50L53.3 49C106.7 48 213.3 46 320 44.8C426.7 43.7 533.3 43.3 640 45.5C746.7 47.7 853.3 52.3 960 51.2C1066.7 50 1173.3 43 1280 40.2C1386.7 37.3 1493.3 38.7 1600 38.7C1706.7 38.7 1813.3 37.3 1866.7 36.7L1920 36L1920 0L1866.7 0C1813.3 0 1706.7 0 1600 0C1493.3 0 1386.7 0 1280 0C1173.3 0 1066.7 0 960 0C853.3 0 746.7 0 640 0C533.3 0 426.7 0 320 0C213.3 0 106.7 0 53.3 0L0 0Z" fill="#410929"></path></svg>