<svg id="visual" viewBox="0 0 768 1024" width="768" height="1024" xmlns="http://www.w3.org/2000/svg" xmlns:xlink="http://www.w3.org/1999/xlink" version="1.1"><path d="M0 179L21.3 186.2C42.7 193.3 85.3 207.7 128 216.2C170.7 224.7 213.3 227.3 256 227.7C298.7 228 341.3 226 384 221.5C426.7 217 469.3 210 512 206.5C554.7 203 597.3 203 640 206.3C682.7 209.7 725.3 216.3 746.7 219.7L768 223L768 0L746.7 0C725.3 0 682.7 0 640 0C597.3 0 554.7 0 512 0C469.3 0 426.7 0 384 0C341.3 0 298.7 0 256 0C213.3 0 170.7 0 128 0C85.3 0 42.7 0 21.3 0L0 0Z" fill="#22152d"></path><path d="M0 150L21.3 155.7C42.7 161.3 85.3 172.7 128 180.3C170.7 188 213.3 192 256 189.2C298.7 186.3 341.3 176.7 384 173.7C426.7 170.7 469.3 174.3 512 174.3C554.7 174.3 597.3 170.7 640 167C682.7 163.3 725.3 159.7 746.7 157.8L768 156L768 0L746.7 0C725.3 0 682.7 0 640 0C597.3 0 554.7 0 512 0C469.3 0 426.7 0 384 0C341.3 0 298.7 0 256 0C213.3 0 170.7 0 128 0C85.3 0 42.7 0 21.3 0L0 0Z" fill="#28142e"></path><path d="M0 149L21.3 150.7C42.7 152.3 85.3 155.7 128 157.2C170.7 158.7 213.3 158.3 256 156.8C298.7 155.3 341.3 152.7 384 152.7C426.7 152.7 469.3 155.3 512 154.7C554.7 154 597.3 150 640 150.2C682.7 150.3 725.3 154.7 746.7 156.8L768 159L768 0L746.7 0C725.3 0 682.7 0 640 0C597.3 0 554.7 0 512 0C469.3 0 426.7 0 384 0C341.3 0 298.7 0 256 0C213.3 0 170.7 0 128 0C85.3 0 42.7 0 21.3 0L0 0Z" fill="#2e122e"></path><path d="M0 96L21.3 99C42.7 102 85.3 108 128 110.8C170.7 113.7 213.3 113.3 256 110.8C298.7 108.3 341.3 103.7 384 101.8C426.7 100 469.3 101 512 103C554.7 105 597.3 108 640 106.7C682.7 105.3 725.3 99.7 746.7 96.8L768 94L768 0L746.7 0C725.3 0 682.7 0 640 0C597.3 0 554.7 0 512 0C469.3 0 426.7 0 384 0C341.3 0 298.7 0 256 0C213.3 0 170.7 0 128 0C85.3 0 42.7 0 21.3 0L0 0Z" fill="#34102d"></path><path d="M0 83L21.3 81C42.7 79 85.3 75 128 71.7C170.7 68.3 213.3 65.7 256 64.2C298.7 62.7 341.3 62.3 384 65.8C426.7 69.3 469.3 76.7 512 81C554.7 85.3 597.3 86.7 640 85.2C682.7 83.7 725.3 79.3 746.7 77.2L768 75L768 0L746.7 0C725.3 0 682.7 0 640 0C597.3 0 554.7 0 512 0C469.3 0 426.7 0 384 0C341.3 0 298.7 0 256 0C213.3 0 170.7 0 128 0C85.3 0 42.7 0 21.3 0L0 0Z" fill="#3b0d2c"></path><path d="M0 47L21.3 46.2C42.7 45.3 85.3 43.7 128 42.5C170.7 41.3 213.3 40.7 256 42.7C298.7 44.7 341.3 49.3 384 48.3C426.7 47.3 469.3 40.7 512 38C554.7 35.3 597.3 36.7 640 36.7C682.7 36.7 725.3 35.3 746.7 34.7L768 34L768 0L746.7 0C725.3 0 682.7 0 640 0C597.3 0 554.7 0 512 0C469.3 0 426.7 0 384 0C341.3 0 298.7 0 256 0C213.3 0 170.7 0 128 0C85.3 0 42.7 0 21.3 0L0 0Z" fill="#410929"></path></svg>