<svg id="visual" viewBox="0 0 360 640" width="360" height="640" xmlns="http://www.w3.org/2000/svg" xmlns:xlink="http://www.w3.org/1999/xlink" version="1.1"><path d="M0 112L10 116.5C20 121 40 130 60 135.3C80 140.7 100 142.3 120 142.5C140 142.7 160 141.3 180 138.5C200 135.7 220 131.3 240 129.2C260 127 280 127 300 129C320 131 340 135 350 137L360 139L360 0L350 0C340 0 320 0 300 0C280 0 260 0 240 0C220 0 200 0 180 0C160 0 140 0 120 0C100 0 80 0 60 0C40 0 20 0 10 0L0 0Z" fill="#22152d"></path><path d="M0 93L10 96.7C20 100.3 40 107.7 60 112.5C80 117.3 100 119.7 120 117.8C140 116 160 110 180 108.2C200 106.3 220 108.7 240 108.7C260 108.7 280 106.3 300 104C320 101.7 340 99.3 350 98.2L360 97L360 0L350 0C340 0 320 0 300 0C280 0 260 0 240 0C220 0 200 0 180 0C160 0 140 0 120 0C100 0 80 0 60 0C40 0 20 0 10 0L0 0Z" fill="#28142e"></path><path d="M0 93L10 94C20 95 40 97 60 97.8C80 98.7 100 98.3 120 97.5C140 96.7 160 95.3 180 95.3C200 95.3 220 96.7 240 96.2C260 95.7 280 93.3 300 93.5C320 93.7 340 96.3 350 97.7L360 99L360 0L350 0C340 0 320 0 300 0C280 0 260 0 240 0C220 0 200 0 180 0C160 0 140 0 120 0C100 0 80 0 60 0C40 0 20 0 10 0L0 0Z" fill="#2e122e"></path><path d="M0 59L10 61C20 63 40 67 60 68.8C80 70.7 100 70.3 120 68.8C140 67.3 160 64.7 180 63.7C200 62.7 220 63.3 240 64.5C260 65.7 280 67.3 300 66.5C320 65.7 340 62.3 350 60.7L360 59L360 0L350 0C340 0 320 0 300 0C280 0 260 0 240 0C220 0 200 0 180 0C160 0 140 0 120 0C100 0 80 0 60 0C40 0 20 0 10 0L0 0Z" fill="#34102d"></path><path d="M0 52L10 50.7C20 49.3 40 46.7 60 44.5C80 42.3 100 40.7 120 39.7C140 38.7 160 38.3 180 40.5C200 42.7 220 47.3 240 50.2C260 53 280 54 300 53.2C320 52.3 340 49.7 350 48.3L360 47L360 0L350 0C340 0 320 0 300 0C280 0 260 0 240 0C220 0 200 0 180 0C160 0 140 0 120 0C100 0 80 0 60 0C40 0 20 0 10 0L0 0Z" fill="#3b0d2c"></path><path d="M0 29L10 28.5C20 28 40 27 60 26.3C80 25.7 100 25.3 120 26.5C140 27.7 160 30.3 180 29.7C200 29 220 25 240 23.3C260 21.7 280 22.3 300 22.3C320 22.3 340 21.7 350 21.3L360 21L360 0L350 0C340 0 320 0 300 0C280 0 260 0 240 0C220 0 200 0 180 0C160 0 140 0 120 0C100 0 80 0 60 0C40 0 20 0 10 0L0 0Z" fill="#410929"></path></svg>