<svg id="visual" viewBox="0 0 1920 1080" width="1920" height="1080" xmlns="http://www.w3.org/2000/svg" xmlns:xlink="http://www.w3.org/1999/xlink" version="1.1"><path d="M0 863L80 861.7C160 860.3 320 857.7 480 857.8C640 858 800 861 960 869.2C1120 877.3 1280 890.7 1440 898.3C1600 906 1760 908 1840 909L1920 910L1920 1081L1840 1081C1760 1081 1600 1081 1440 1081C1280 1081 1120 1081 960 1081C800 1081 640 1081 480 1081C320 1081 160 1081 80 1081L0 1081Z" fill="#f3f2f2"></path><path d="M0 950L80 954.8C160 959.7 320 969.3 480 976.8C640 984.3 800 989.7 960 987.2C1120 984.7 1280 974.3 1440 968.8C1600 963.3 1760 962.7 1840 962.3L1920 962L1920 1081L1840 1081C1760 1081 1600 1081 1440 1081C1280 1081 1120 1081 960 1081C800 1081 640 1081 480 1081C320 1081 160 1081 80 1081L0 1081Z" fill="#410929"></path></svg>