<svg id="Camada_1" data-name="Camada 1" xmlns="http://www.w3.org/2000/svg" viewBox="0 0 419.47 380.7"><defs><style>.cls-1{fill-rule:evenodd;}</style></defs><title>vetor logo souldance</title><path class="cls-1" d="M294,564.63a5,5,0,0,1-.82-.91A95.87,95.87,0,0,1,285,544.28a122.92,122.92,0,0,1-3.12-13.57,69.6,69.6,0,0,1-1-10.88c-.14-5.35.1-10.73.13-16.09,0-1.89-.16-3.77-.18-5.65,0-1,.14-1.93.2-2.9s.09-2.22.19-3.32c.2-1.89.38-3.79.66-5.67.58-3.76,1.22-7.52,1.84-11.27a111,111,0,0,1,4.31-16.75A155.69,155.69,0,0,1,302.19,428c5.88-9.86,11.88-19.66,17.56-29.64a105.09,105.09,0,0,0,10.79-25.24,98.72,98.72,0,0,0,2.25-11.56,67.46,67.46,0,0,0,.74-9.94c0-8.62-1.73-16.87-6.08-24.44a45.6,45.6,0,0,0-13.58-14.31,116.11,116.11,0,0,1-18.52-16.06,70.55,70.55,0,0,1-14.24-22.26c-1.46-3.77-3.11-7.51-4.18-11.39s-1.63-8.15-2.34-12.24c-.3-1.78-.43-3.59-.65-5.39a26.53,26.53,0,0,1,1.84-12.43,56.67,56.67,0,0,1,9.85-16.71A126,126,0,0,1,295,206c8.19-8,17.07-15.18,27.33-20.44,1.25-.64,2.59-1.1,3.89-1.66l.13.22a6.41,6.41,0,0,1-.52.39A178.83,178.83,0,0,0,304,201.11a123.47,123.47,0,0,0-17.67,18.75,49.73,49.73,0,0,0-8.38,16,27.69,27.69,0,0,0-.76,10,64.53,64.53,0,0,0,4.05,18.38c5.07,13,14.07,22,27.2,26.71,6.06,2.19,12.24,4.08,18.34,6.16a61,61,0,0,1,15.87,7.81A37.5,37.5,0,0,1,356,322.51a54.69,54.69,0,0,1,3.68,17.55,65.4,65.4,0,0,1-3.82,23.76A103.16,103.16,0,0,1,341,391.46c-6.37,8.71-13,17.21-19.47,25.87A234.23,234.23,0,0,0,299,453.49a149.49,149.49,0,0,0-12,31.95c-1.22,5.2-2.25,10.47-3,15.75a95.21,95.21,0,0,0-.89,11.69,102,102,0,0,0,.26,12.49c1.14,12,3.67,23.59,9,34.47.6,1.22,1.17,2.44,1.72,3.68a4.63,4.63,0,0,1,.17,1A1.33,1.33,0,0,0,294,564.63Z" transform="translate(-273.79 -183.92)"/><path class="cls-1" d="M380.73,342.05c0-8.55-.3-17.13.08-25.67.59-13.67,3.32-26.89,10.76-38.65S409.35,258.38,423,256c16-2.71,31-.62,43.94,10.23,7.74,6.51,12.56,14.91,15.76,24.35a93.53,93.53,0,0,1,4.95,30.44c0,14.4.06,28.81,0,43.2A81.42,81.42,0,0,1,479,401c-7.25,14.33-18.91,23.4-34.92,25.88-15.64,2.43-30.37.19-42.86-10.57a51.46,51.46,0,0,1-14.47-21.09,84.4,84.4,0,0,1-6.07-33.14C380.92,355.42,380.73,348.73,380.73,342.05Zm100.2-.55h0c0-8.15-.12-16.28.05-24.43a69.36,69.36,0,0,0-4.18-24.47c-3.17-9.13-8-17-15.93-22.86-8.82-6.5-18.78-8.58-29.51-8.14-15.79.67-27.65,8-35.61,21.46-6.23,10.63-8.49,22.38-8.58,34.56-.12,15.46,0,30.9,0,46.34a78.43,78.43,0,0,0,5.42,28.85c5,12.87,13.72,22,26.89,26.33,7.1,2.35,14.47,2.47,21.86,1.62A39.59,39.59,0,0,0,466,408.5c10-10.58,14-23.84,14.82-38C481.42,360.86,480.93,351.17,480.93,341.5Z" transform="translate(-273.79 -183.92)"/><path class="cls-1" d="M499.2,255.1c1.92,0,3.58-.07,5.23.08.42,0,.93.75,1.12,1.25a4.6,4.6,0,0,1,0,1.66c0,35.69-.18,71.39.09,107.09.14,14.71,4,28.63,13.39,40.35a39.52,39.52,0,0,0,27.88,15.3c9,.9,17.6.08,25.71-4.13,11.12-5.75,17.92-15,22.08-26.58a76.3,76.3,0,0,0,4.71-26.48c-.11-35.2-.05-70.41-.05-105.61v-2.79h6.74v2.32c0,35.9.36,71.8-.15,107.71-.25,16.22-4.87,31.6-15.17,44.56-7.83,9.81-18,16-30.75,17.36-9.51,1.05-18.88.59-27.74-3.43-11.84-5.4-20.17-14.33-25.44-26.14a89.24,89.24,0,0,1-7.76-37.18c.15-34.16.08-68.32.08-102.48Z" transform="translate(-273.79 -183.92)"/><path class="cls-1" d="M625.17,255.33c.61-.05,1.1-.11,1.55-.12h4.59V421.32h62v6.22H625.17Z" transform="translate(-273.79 -183.92)"/><path class="cls-1" d="M336.21,268.38a9.06,9.06,0,0,1,0,18.11,9,9,0,0,1-9-9A9,9,0,0,1,336.21,268.38Z" transform="translate(-273.79 -183.92)"/><path class="cls-1" d="M486.45,564.35h-3.72V464.19l.4-.2q30.15,43.8,60.35,87.6c.13,0,.29-.11.44-.17V463.51h3.67v101l-60.74-88.17-.4.12Z" transform="translate(-273.79 -183.92)"/><path class="cls-1" d="M336.74,564.49v-101c.8,0,1.54-.09,2.29-.09H362c16,0,27.58,9.29,30.76,25a61,61,0,0,1,1.15,11c.15,10.15.09,20.32,0,30.49,0,7.5-1.71,14.63-5.93,20.94-4.65,6.92-11.51,10.72-19.42,12.73a34.49,34.49,0,0,1-7.79,1c-7.24.14-14.46,0-21.72,0Zm4-3.45c8.51-.21,16.82,0,25-.78a25.27,25.27,0,0,0,17.06-9.07c5.12-6,7.1-13.15,7.22-20.82.17-10.7.08-21.43,0-32.13a36.08,36.08,0,0,0-3.2-15.37c-4.05-8.75-10.67-14.52-20.46-15.36-7.92-.67-16-.4-23.95-.52-.53,0-1.06.06-1.72.11Z" transform="translate(-273.79 -183.92)"/><path class="cls-1" d="M420.07,533.77q-5,13.77-9.92,27.56c-1.29,3.52-1.25,3.54-5.38,2.91Q422.44,514,440,463.86l.51,0q17.58,50.1,35.22,100.25c-3.7,1-4,.82-5.19-2.47q-4.69-13-9.38-26c-.38-1.05-.59-2-2.18-2-12.67.07-25.32,0-38,.06C420.74,533.68,420.47,533.73,420.07,533.77Zm20.46-54.89-.51.05c-6.14,16.92-12.27,33.84-18.46,50.89H459C452.78,512.69,446.67,495.79,440.53,478.88Z" transform="translate(-273.79 -183.92)"/><path class="cls-1" d="M690.21,463.54v3.37H643.69v60.34h46.43v3.55H643.69v30h46.48v3.55H639.71V463.54Z" transform="translate(-273.79 -183.92)"/><path class="cls-1" d="M616.5,529.18h3.57c-.47,8.48-2.38,16.36-6.92,23.49a24.12,24.12,0,0,1-10.17,9c-13.73,6.35-31.65,2.7-38.87-14.29a51.91,51.91,0,0,1-4.19-20.83c0-8.36,0-16.71,0-25.06a52.73,52.73,0,0,1,4.1-20.89c3.64-8.49,9.66-14.49,18.82-16.52,14.61-3.2,27.87,2.61,33.51,17.3a57.64,57.64,0,0,1,2.52,8.37c.62,2.82.88,5.73,1.34,8.79h-3.62c-.79-4-1.34-8.09-2.39-12-1.81-6.77-5.29-12.57-11.51-16.23-11.57-6.8-29.83-4-36,13.58a48,48,0,0,0-2.8,16.33c.1,10.38-.2,20.76.19,31.09.3,7.58,2.35,14.82,7.31,20.89,5.61,6.9,13.06,9.42,21.7,8.41,12.46-1.46,18.63-9.67,21.59-20.94C615.54,536.29,615.89,532.75,616.5,529.18Z" transform="translate(-273.79 -183.92)"/></svg>